Coordinates
version=1
nRows=53
nColumns=11
inDegrees=yes

Units are S.I. units (second, meters, Newtons, ...)
Angles are in degrees.

endheader
time	pelvis_tilt	pelvis_tx	pelvis_ty	hip_flexion_r	knee_angle_r	ankle_angle_r	hip_flexion_l	knee_angle_l	ankle_angle_l	lumbar_extension
      0.30000000	     -7.85780527	      0.29149021	      1.01624767	      7.67055464	     -5.93461946	      5.87540287	      9.51646260	     -6.37522166	      3.99461648	      5.72183585
      0.30833333	     -7.85971009	      0.29150402	      1.01630267	      7.65177300	     -5.90092925	      5.84665746	      9.52313565	     -6.38086792	      4.04364580	      5.74416824
      0.31666667	     -7.86150811	      0.29151070	      1.01633658	      7.64232496	     -5.87846413	      5.82324982	      9.52668842	     -6.37951087	      4.06931580	      5.76674867
      0.32500000	     -7.86296950	      0.29151014	      1.01634754	      7.63967561	     -5.86389444	      5.80417233	      9.52758331	     -6.37267778	      4.07700747	      5.79003883
      0.33333333	     -7.86436476	      0.29150502	      1.01633604	      7.64066062	     -5.85335384	      5.78823466	      9.52640351	     -6.36236766	      4.07359462	      5.81409317
      0.34166667	     -7.86631163	      0.29150196	      1.01630941	      7.64219352	     -5.84335311	      5.77432600	      9.52394343	     -6.35066686	      4.06592761	      5.83836973
      0.35000000	     -7.86922107	      0.29150698	      1.01628434	      7.64194806	     -5.83129694	      5.76158470	      9.52122301	     -6.33945131	      4.05958659	      5.86191218
      0.35833333	     -7.87299377	      0.29151896	      1.01627584	      7.63879867	     -5.81568018	      5.74947791	      9.51922825	     -6.33026352	      4.05807861	      5.88365940
      0.36666667	     -7.87716891	      0.29153008	      1.01628409	      7.63277550	     -5.79614013	      5.73780224	      9.51869611	     -6.32418993	      4.06263850	      5.90266241
      0.37500000	     -7.88127049	      0.29153331	      1.01629818	      7.62467335	     -5.77339873	      5.72662543	      9.52009455	     -6.32164945	      4.07270813	      5.91822612
      0.38333333	     -7.88510684	      0.29152832	      1.01630743	      7.61565178	     -5.74901970	      5.71619458	      9.52350831	     -6.32233146	      4.08682048	      5.93010618
      0.39166667	     -7.88884509	      0.29152091	      1.01630610	      7.60692169	     -5.72499727	      5.70683567	      9.52843396	     -6.32540637	      4.10347261	      5.93877472
      0.40000000	     -7.89277810	      0.29151798	      1.01629347	      7.59945562	     -5.70326908	      5.69886164	      9.53382382	     -6.32985434	      4.12169868	      5.94559354
      0.40833333	     -7.89691299	      0.29152150	      1.01627228	      7.59374593	     -5.68524978	      5.69249901	      9.53850081	     -6.33474391	      4.14121299	      5.95269640
      0.41666667	     -7.90064924	      0.29152716	      1.01624889	      7.58970441	     -5.67151473	      5.68783433	      9.54179845	     -6.33936364	      4.16218552	      5.96245813
      0.42500000	     -7.90294765	      0.29153063	      1.01623411	      7.58676591	     -5.66176573	      5.68477657	      9.54397144	     -6.34328339	      4.18482711	      5.97661250
      0.43333333	     -7.90317701	      0.29153181	      1.01623644	      7.58415872	     -5.65510693	      5.68303183	      9.54580482	     -6.34655445	      4.20895952	      5.99543873
      0.44166667	     -7.90185885	      0.29153210	      1.01625248	      7.58122424	     -5.65047519	      5.68209713	      9.54774283	     -6.34990375	      4.23377187	      6.01757465
      0.45000000	     -7.90029107	      0.29153211	      1.01626969	      7.57762646	     -5.64694067	      5.68129127	      9.54959942	     -6.35451315	      4.25790092	      6.04059520
      0.45833333	     -7.89941148	      0.29153321	      1.01627838	      7.57332314	     -5.64368235	      5.67984103	      9.55108272	     -6.36143366	      4.27977255	      6.06190998
      0.46666667	     -7.89918295	      0.29154039	      1.01627731	      7.56836687	     -5.63972649	      5.67702422	      9.55234316	     -6.37111811	      4.29806143	      6.07939341
      0.47500000	     -7.89903328	      0.29156110	      1.01626983	      7.56269612	     -5.63379279	      5.67234807	      9.55390760	     -6.38338321	      4.31216214	      6.09159279
      0.48333333	     -7.89866925	      0.29159736	      1.01625757	      7.55597045	     -5.62457681	      5.66572605	      9.55621854	     -6.39766931	      4.32255210	      6.09777220
      0.49166667	     -7.89818674	      0.29164023	      1.01623998	      7.54754582	     -5.61144976	      5.65761806	      9.55946070	     -6.41323671	      4.33090329	      6.09800402
      0.50000000	     -7.89733327	      0.29167482	      1.01622047	      7.53670003	     -5.59521039	      5.64911104	      9.56381147	     -6.42920402	      4.33982160	      6.09326031
      0.50833333	     -7.89496979	      0.29169090	      1.01621043	      7.52303682	     -5.57848494	      5.64193442	      9.56949333	     -6.44471756	      4.35217005	      6.08529905
      0.51666667	     -7.88959959	      0.29169172	      1.01622273	      7.50697417	     -5.56553139	      5.63843280	      9.57611979	     -6.45948268	      4.37005516	      6.07619061
      0.52500000	     -7.88070531	      0.29169380	      1.01625872	      7.49015247	     -5.56147388	      5.64153104	      9.58167132	     -6.47449591	      4.39365098	      6.06757168
      0.53333333	     -7.86973340	      0.29171348	      1.01629968	      7.47536514	     -5.57131325	      5.65470154	      9.58219771	     -6.49249763	      4.42007176	      6.05998774
      0.54166667	     -7.85946629	      0.29175118	      1.01631101	      7.46562232	     -5.59924672	      5.68190844	      9.57339556	     -6.51766186	      4.44252541	      6.05269847
      0.55000000	     -7.85192630	      0.29179026	      1.01626133	      7.46224627	     -5.64875771	      5.72748932	      9.55390158	     -6.55464738	      4.44997744	      6.04402890
      0.55833333	     -7.84657242	      0.29180907	      1.01614840	      7.46279252	     -5.72332004	      5.79594130	      9.52800562	     -6.60803961	      4.42749480	      6.03210141
      0.56666667	     -7.84015350	      0.29179725	      1.01601208	      7.46071268	     -5.82671472	      5.89158797	      9.50490190	     -6.68322497	      4.35735259	      6.01568469
      0.57500000	     -7.82818136	      0.29177303	      1.01590845	      7.44811704	     -5.96205951	      6.01811690	      9.49359926	     -6.78849573	      4.22097393	      5.99484552
      0.58333333	     -7.80760257	      0.29178528	      1.01585283	      7.42041857	     -6.12983390	      6.17800157	      9.49563767	     -6.93666536	      4.00192548	      5.97114311
      0.59166667	     -7.78007085	      0.29187682	      1.01579167	      7.37939618	     -6.32622501	      6.37186267	      9.50008394	     -7.14373838	      3.69015764	      5.94727481
      0.60000000	     -7.75358583	      0.29202843	      1.01563843	      7.33178929	     -6.54305653	      6.59787943	      9.48561713	     -7.42296087	      3.28686894	      5.92634088
      0.60833333	     -7.73923055	      0.29215276	      1.01533221	      7.28388895	     -6.76941670	      6.85141694	      9.43127978	     -7.77526026	      2.80820598	      5.91113198
      0.61666667	     -7.74287490	      0.29218047	      1.01487707	      7.23585179	     -6.99380317	      7.12505384	      9.33114211	     -8.18060085	      2.28570991	      5.90381321
      0.62500000	     -7.75894424	      0.29215710	      1.01434958	      7.17984971	     -7.20528634	      7.40912385	      9.20149526	     -8.59737543	      1.76213078	      5.90610755
      0.63333333	     -7.77540326	      0.29220376	      1.01385512	      7.10352334	     -7.39311356	      7.69271383	      9.07062852	     -8.97454013	      1.28277369	      5.91978074
      0.64166667	     -7.78619935	      0.29237618	      1.01345566	      6.99651925	     -7.54554756	      7.96488640	      8.95799977	     -9.27059194	      0.88516385	      5.94704523
      0.65000000	     -7.79664952	      0.29262042	      1.01313924	      6.85565592	     -7.64952597	      8.21582586	      8.86240603	     -9.46599319	      0.59140945	      5.99055462
      0.65833333	     -7.81765180	      0.29286256	      1.01284906	      6.68520762	     -7.69222199	      8.43767621	      8.76734429	     -9.56267444	      0.40592561	      6.05290353
      0.66666667	     -7.85768428	      0.29308813	      1.01253627	      6.49251042	     -7.66398418	      8.62499632	      8.65467201	     -9.57519718	      0.31817875	      6.13581620
      0.67500000	     -7.91957442	      0.29333121	      1.01219534	      6.28268139	     -7.56088883	      8.77488690	      8.51520884	     -9.52099594	      0.30844132	      6.23942249
      0.68333333	     -8.00155734	      0.29362122	      1.01185036	      6.05657578	     -7.38543348	      8.88687767	      8.35142810	     -9.41422164	      0.35424202	      6.36203359
      0.69166667	     -8.09954655	      0.29395700	      1.01151417	      5.81306055	     -7.14526692	      8.96263966	      8.17349163	     -9.26413508	      0.43566828	      6.50056370
      0.70000000	     -8.20933534	      0.29431453	      1.01117881	      5.55327481	     -6.85100773	      9.00556874	      7.99239657	     -9.07684040	      0.53848326	      6.65142870
      0.70833333	     -8.32854694	      0.29465763	      1.01083925	      5.28340025	     -6.51447040	      9.02029264	      7.81435356	     -8.85808191	      0.65483421	      6.81159634
      0.71666667	     -8.45729479	      0.29494560	      1.01050029	      5.01391867	     -6.14803430	      9.01216191	      7.63982874	     -8.61464095	      0.78202118	      6.97941968
      0.72500000	     -8.59751163	      0.29514381	      1.01015993	      4.75619565	     -5.76489716	      8.98677947	      7.46694150	     -8.35377754	      0.92023802	      7.15488849
      0.73333333	     -8.75198509	      0.29523740	      1.00980631	      4.51912926	     -5.37937649	      8.94960807	      7.29579316	     -8.08206386	      1.07033652	      7.33910945
